HIERARCHY
ROOT Hips
{
	OFFSET 0.000000 0.000000 0.000000
	CHANNELS 6 Xposition Yposition Zposition Zrotation Yrotation Xrotation 
	JOINT LHipJoint
	{
		OFFSET 0.000000 0.000000 0.000000
		CHANNELS 3 Zrotation Yrotation Xrotation
		JOINT LeftUpLeg
		{
			OFFSET 1.363060 -1.794630 0.839290
			CHANNELS 3 Zrotation Yrotation Xrotation
			JOINT LeftLeg
			{
				OFFSET 2.448110 -6.726130 0.000000
				CHANNELS 3 Zrotation Yrotation Xrotation
				JOINT LeftFoot
				{
					OFFSET 2.562200 -7.039590 0.000000
					CHANNELS 3 Zrotation Yrotation Xrotation
					JOINT LeftToeBase
					{
						OFFSET 0.157640 -0.433110 2.322550
						CHANNELS 3 Zrotation Yrotation Xrotation
						End Site
						{
							OFFSET 0.000000 0.000000 0.000000
						}
					}
				}
			}
		}
	}
	JOINT RHipJoint
	{
		OFFSET 0.000000 0.000000 0.000000
		CHANNELS 3 Zrotation Yrotation Xrotation
		JOINT RightUpLeg
		{
			OFFSET -1.305520 -1.794630 0.839290
			CHANNELS 3 Zrotation Yrotation Xrotation
			JOINT RightLeg
			{
				OFFSET -2.542530 -6.985550 0.000000
				CHANNELS 3 Zrotation Yrotation Xrotation
				JOINT RightFoot
				{
					OFFSET -2.568260 -7.056230 0.000000
					CHANNELS 3 Zrotation Yrotation Xrotation
					JOINT RightToeBase
					{
						OFFSET -0.164730 -0.452590 2.363150
						CHANNELS 3 Zrotation Yrotation Xrotation
						End Site
						{
							OFFSET 0.000000 0.000000 0.000000
						}
					}
				}
			}
		}
	}
	JOINT LowerBack
	{
		OFFSET 0.000000 0.000000 0.000000
		CHANNELS 3 Zrotation Yrotation Xrotation
		JOINT Spine
		{
			OFFSET 0.028270 2.035590 -0.193380
			CHANNELS 3 Zrotation Yrotation Xrotation
			JOINT Spine1
			{
				OFFSET 0.056720 2.048850 -0.042750
				CHANNELS 3 Zrotation Yrotation Xrotation
				JOINT Neck
				{
					OFFSET 0.000000 0.000000 0.000000
					CHANNELS 3 Zrotation Yrotation Xrotation
					JOINT Neck1
					{
						OFFSET -0.054170 1.746240 0.172020
						CHANNELS 3 Zrotation Yrotation Xrotation
						JOINT Head
						{
							OFFSET 0.104070 1.761360 -0.123970
							CHANNELS 3 Zrotation Yrotation Xrotation
							End Site
							{
								OFFSET 0.000000 0.000000 0.000000
							}
						}
					}
				}
				JOINT LeftShoulder
				{
					OFFSET 0.000000 0.000000 0.000000
					CHANNELS 3 Zrotation Yrotation Xrotation
					JOINT LeftArm
					{
						OFFSET 3.362410 1.200890 -0.311210
						CHANNELS 3 Zrotation Yrotation Xrotation
						JOINT LeftForeArm
						{
							OFFSET 4.983000 -0.000000 -0.000000
							CHANNELS 3 Zrotation Yrotation Xrotation
							JOINT LeftHand
							{
								OFFSET 3.483560 -0.000000 -0.000000
								CHANNELS 3 Zrotation Yrotation Xrotation
								JOINT LeftFingerBase
								{
									OFFSET 0.000000 0.000000 0.000000
									CHANNELS 3 Zrotation Yrotation Xrotation
									JOINT LeftHandIndex1
									{
										OFFSET 0.715260 -0.000000 -0.000000
										CHANNELS 3 Zrotation Yrotation Xrotation
										End Site
										{
											OFFSET 0.000000 0.000000 0.000000
										}
									}
								}
								JOINT LThumb
								{
									OFFSET 0.000000 0.000000 0.000000
									CHANNELS 3 Zrotation Yrotation Xrotation
									End Site
									{
										OFFSET 0.000000 0.000000 0.000000
									}
								}
							}
						}
					}
				}
				JOINT RightShoulder
				{
					OFFSET 0.000000 0.000000 0.000000
					CHANNELS 3 Zrotation Yrotation Xrotation
					JOINT RightArm
					{
						OFFSET -3.136600 1.374050 -0.404650
						CHANNELS 3 Zrotation Yrotation Xrotation
						JOINT RightForeArm
						{
							OFFSET -5.241900 -0.000000 -0.000000
							CHANNELS 3 Zrotation Yrotation Xrotation
							JOINT RightHand
							{
								OFFSET -3.444170 -0.000000 -0.000000
								CHANNELS 3 Zrotation Yrotation Xrotation
								JOINT RightFingerBase
								{
									OFFSET 0.000000 0.000000 0.000000
									CHANNELS 3 Zrotation Yrotation Xrotation
									JOINT RightHandIndex1
									{
										OFFSET -0.622530 -0.000000 -0.000000
										CHANNELS 3 Zrotation Yrotation Xrotation
										End Site
										{
											OFFSET 0.000000 0.000000 0.000000
										}
									}
								}
								JOINT RThumb
								{
									OFFSET 0.000000 0.000000 0.000000
									CHANNELS 3 Zrotation Yrotation Xrotation
									End Site
									{
										OFFSET 0.000000 0.000000 0.000000
									}
								}
							}
						}
					}
				}
			}
		}
	}
}
MOTION
Frames: 9
Frame Time: 0.008333
-1.607957 16.776126 -1.165708 -152.682478 76.010834 -148.376672 -10.430002 1.480418 3.741741 -19.713842 0.784626 -25.004453 -2.517894 -0.818392 12.475707 1.565310 6.079097 -12.618375 179.360800 0.000000 -0.551400 9.282343 -5.153967 -2.618262 4.631080 -24.800107 -1.508438 0.732376 -2.975567 38.811264 0.318039 12.449476 18.614664 5.137700 -0.000000 -89.012699 3.384451 3.503906 -3.424109 -0.867195 3.030586 -3.463100 -8.185758 3.124503 1.107945 10.859443 -8.635383 -8.641586 -2.821609 -0.213006 -0.248105 0.000000 0.000000 0.000000 -0.180625 27.361343 1.154893 -54.591288 22.062017 -20.556219 -1.124789 -62.614370 0.008446 21.764899 -3.656878 -0.715860 -0.266063 0.032255 -0.000000 0.000000 0.000000 0.000000 0.000000 0.000000 0.000000 12.303286 1.207507 -3.039067 74.909873 18.740433 7.752771 0.687324 73.899436 -0.046035 -8.083375 11.442680 -0.856139 0.099070 -0.511868 -0.000000 0.000000 0.000000 0.000000 0.000000 0.000000 0.000000 
-1.433744 16.760257 -1.218306 -155.019264 75.433939 -150.703996 -10.308044 1.592667 3.792780 -20.147014 0.218000 -24.572994 -2.525963 -0.708543 13.395464 1.542391 6.011477 -12.477860 179.385000 0.000001 -3.376300 9.566624 -5.016934 -2.648071 3.786728 -24.831639 -2.751659 0.438099 -3.073881 41.705007 0.135982 12.581159 20.639286 5.684200 0.000000 -87.920900 3.138101 3.337006 -3.483875 -0.909877 2.880641 -3.467009 -8.205142 2.974643 1.134998 10.942935 -8.851214 -8.704375 -2.871289 -0.216105 -0.266034 0.000000 0.000000 0.000000 -0.305283 27.247093 1.086082 -54.708975 21.444608 -20.327533 -1.095674 -63.269279 0.007393 21.774376 -3.671599 -0.719731 -0.266853 0.035563 -0.000000 0.000000 0.000000 0.000000 0.000000 0.000000 0.000000 12.711255 0.917427 -2.992987 75.339547 18.149685 7.685125 0.723910 73.224573 -0.044658 -8.145139 11.591443 -0.873423 0.102896 -0.505894 -0.000000 0.000000 0.000000 0.000000 0.000000 0.000000 0.000000 
-1.264406 16.745931 -1.272612 -157.207035 74.835670 -152.848013 -10.190112 1.689337 3.832234 -20.594169 -0.324011 -24.128741 -2.537602 -0.609175 14.219052 1.513370 5.905357 -12.330589 179.411599 0.000000 -5.828700 9.820535 -4.854494 -2.663415 3.060604 -24.646860 -4.063097 0.170358 -3.163805 44.556206 -0.060673 12.074357 22.256084 5.860800 0.000000 -86.111600 2.913088 3.161348 -3.537384 -0.942366 2.721340 -3.466822 -8.203610 2.815445 1.168094 10.978663 -9.069265 -8.781149 -2.916533 -0.218645 -0.287862 0.000000 0.000000 0.000000 -0.480587 27.137678 1.014879 -54.931774 20.698731 -20.104275 -1.069789 -63.880932 0.006323 21.787832 -3.697245 -0.725801 -0.267167 0.038949 -0.000000 0.000000 0.000000 0.000000 0.000000 0.000000 0.000000 13.051516 0.611176 -2.947583 75.754684 17.552612 7.581537 0.761168 72.484573 -0.043368 -8.231824 11.737091 -0.893216 0.106796 -0.499245 -0.000000 0.000000 0.000000 0.000000 0.000000 0.000000 0.000000 
-1.100158 16.733440 -1.329187 -159.175283 74.227461 -154.742714 -10.085411 1.768413 3.858427 -21.025204 -0.831405 -23.657985 -2.551447 -0.521666 14.930354 1.476917 5.749834 -12.190647 179.438701 0.000000 -7.888800 10.036769 -4.673091 -2.661091 2.470645 -24.233603 -5.432125 -0.073721 -3.251770 47.337633 -0.263737 10.914384 23.382123 5.604401 -0.000000 -83.703000 2.730816 2.984549 -3.585270 -0.961365 2.558590 -3.463010 -8.182014 2.652944 1.205287 10.968419 -9.281856 -8.867582 -2.957334 -0.220696 -0.312358 0.000000 0.000000 0.000000 -0.707156 27.030841 0.940760 -55.263818 19.835399 -19.883865 -1.046615 -64.456582 0.005243 21.806778 -3.735581 -0.734571 -0.267087 0.042453 -0.000000 0.000000 0.000000 0.000000 0.000000 0.000000 0.000000 13.321350 0.300669 -2.901713 76.132732 16.940293 7.440870 0.798215 71.703239 -0.042099 -8.327307 11.872919 -0.913520 0.110503 -0.491916 -0.000000 0.000000 0.000000 0.000000 0.000000 0.000000 0.000000 
-0.941041 16.722996 -1.388440 -160.892641 73.625634 -156.361753 -9.998371 1.829388 3.869827 -21.422140 -1.298216 -23.144756 -2.566990 -0.447802 15.511325 1.433387 5.544275 -12.069119 179.464500 -0.000000 -9.573400 10.214574 -4.477408 -2.638016 2.014708 -23.587796 -6.848476 -0.298444 -3.340756 50.017882 -0.469380 9.164772 23.972857 4.930200 0.000000 -80.907200 2.602914 2.813164 -3.628659 -0.965484 2.397898 -3.456235 -8.141875 2.492697 1.245151 10.917519 -9.486827 -8.959609 -2.993630 -0.222316 -0.338385 0.000000 0.000000 0.000000 -0.981610 26.923601 0.863010 -55.705411 18.868600 -19.660182 -1.025624 -65.003814 0.004135 21.833298 -3.787933 -0.746339 -0.266734 0.046152 -0.000000 0.000000 0.000000 0.000000 0.000000 0.000000 0.000000 13.523540 -0.008529 -2.854075 76.455681 16.309781 7.268882 0.834634 70.902967 -0.040773 -8.415503 11.995848 -0.932133 0.113810 -0.483978 0.000000 0.000000 0.000000 0.000000 0.000000 0.000000 0.000000 
-0.786889 16.714832 -1.450676 -162.341653 73.045771 -157.690544 -9.931832 1.872836 3.865132 -21.770839 -1.715677 -22.582066 -2.584049 -0.389003 15.950852 1.383869 5.291334 -11.977903 179.487200 0.000000 -10.930600 10.355047 -4.271574 -2.589290 1.687335 -22.705415 -8.302795 -0.507181 -3.430455 52.559635 -0.675583 6.953402 24.019365 3.922800 0.000000 -77.892600 2.539335 2.652644 -3.671787 -0.953650 2.243607 -3.447861 -8.085507 2.339040 1.286200 10.832172 -9.681957 -9.052673 -3.025623 -0.223595 -0.364652 0.000000 0.000000 0.000000 -1.300859 26.813512 0.780863 -56.251797 17.816433 -19.423927 -1.006328 -65.531441 0.002986 21.868347 -3.855150 -0.761404 -0.266249 0.050100 -0.000000 0.000000 0.000000 0.000000 0.000000 0.000000 0.000000 13.663025 -0.311105 -2.803982 76.709352 15.656550 7.070823 0.870077 70.108632 -0.039318 -8.479425 12.106233 -0.947254 0.116513 -0.475568 -0.000000 0.000000 0.000000 0.000000 0.000000 0.000000 0.000000 
-0.637325 16.709052 -1.516141 -163.523207 72.502049 -158.730028 -9.886631 1.900152 3.843859 -22.063391 -2.076909 -21.970120 -2.602564 -0.346405 16.242079 1.330487 4.999872 -11.926819 179.505500 0.000000 -12.018800 10.460812 -4.058936 -2.509454 1.476025 -21.585828 -9.785890 -0.701302 -3.518157 54.921873 -0.879872 4.457085 23.548660 2.716801 -0.000000 -74.795699 2.546093 2.506573 -3.720715 -0.925385 2.098392 -3.439565 -8.015229 2.194588 1.327289 10.718559 -9.866212 -9.142412 -3.053353 -0.224608 -0.389907 0.000000 0.000000 0.000000 -1.661173 26.698520 0.693840 -56.893831 16.699734 -19.164447 -0.988270 -66.048736 0.001790 21.913459 -3.937179 -0.779865 -0.265799 0.054351 -0.000000 0.000000 0.000000 0.000000 0.000000 0.000000 0.000000 13.744560 -0.603898 -2.751444 76.885587 14.977292 6.852221 0.904288 69.344220 -0.037679 -8.503938 12.208077 -0.957283 0.118451 -0.466877 -0.000000 0.000000 0.000000 0.000000 0.000000 0.000000 0.000000 
-0.491873 16.705688 -1.584942 -164.451239 72.004077 -159.493605 -9.862129 1.913452 3.806716 -22.297852 -2.377424 -21.314539 -2.622419 -0.320647 16.383056 1.275968 4.683072 -11.922992 179.518700 -0.000001 -12.905201 10.535125 -3.842172 -2.393223 1.361782 -20.235920 -11.289142 -0.880110 -3.599594 57.061849 -1.078001 1.874662 22.624072 1.464400 -0.000000 -71.737800 2.624911 2.376241 -3.782993 -0.880951 1.962884 -3.433343 -7.933598 2.059877 1.367075 10.582259 -10.038054 -9.224410 -3.077039 -0.225446 -0.412870 0.000000 0.000000 0.000000 -2.057852 26.575595 0.601929 -57.620047 15.541838 -18.872429 -0.971063 -66.565293 0.000534 21.968476 -4.033470 -0.801620 -0.265542 0.058959 -0.000000 0.000000 0.000000 0.000000 0.000000 0.000000 0.000000 13.773091 -0.884057 -2.697215 76.982186 14.266746 6.614285 0.936893 68.633375 -0.035825 -8.476775 12.306959 -0.961217 0.119495 -0.458120 -0.000000 0.000000 0.000000 0.000000 0.000000 0.000000 0.000000 
-0.349850 16.704646 -1.657069 -165.158998 71.555419 -160.011200 -9.855729 1.915500 3.756348 -22.479378 -2.619693 -20.623039 -2.643402 -0.312041 16.373056 1.223539 4.359654 -11.966278 179.526701 -0.000000 -13.630500 10.582031 -3.623188 -2.236766 1.316084 -18.673941 -12.804969 -1.041267 -3.670205 58.940659 -1.263041 -0.598158 21.333403 0.305300 0.000000 -68.778900 2.770690 2.260186 -3.866531 -0.821676 1.835479 -3.430625 -7.842600 1.933244 1.406678 10.429456 -10.205555 -9.297601 -3.096349 -0.226108 -0.433166 0.000000 0.000000 0.000000 -2.485393 26.445006 0.504833 -58.416879 14.359997 -18.537525 -0.954505 -67.087837 -0.000814 22.034120 -4.141146 -0.826271 -0.265650 0.063999 -0.000000 0.000000 0.000000 0.000000 0.000000 0.000000 0.000000 13.755468 -1.160250 -2.642317 77.002241 13.531067 6.365319 0.967875 67.991121 -0.033757 -8.394589 12.411470 -0.959255 0.119686 -0.449506 -0.000000 0.000000 0.000000 0.000000 0.000000 0.000000 0.000000 
